<svg width="300" height="340" viewBox="0 0 300 340" xmlns="http://www.w3.org/2000/svg">
<rect width="300" height="340" fill="none"/>

    <rect x="105" y="40" width="90" height="40" rx="8" fill="#0F1F5C"/>
    <rect x="120" y="20" width="60" height="26" rx="6" fill="#17307E"/>
    <path d="M100 80 L110 130 L110 300 Q110 315 125 315 L175 315 Q190 315 190 300 L190 130 L200 80 Z" fill="#FFFFFF" stroke="#E4E7F2" stroke-width="2"/>
    <path d="M110 150 L190 150 L190 300 Q190 315 175 315 L125 315 Q110 315 110 300 Z" fill="#5A2A1E"/>
    <rect x="112" y="180" width="76" height="70" rx="6" fill="#FFFFFF"/>
    <text x="150" y="205" font-family="Manrope" font-weight="800" font-size="15" fill="#0F1F5C" text-anchor="middle">HEMTOR</text>
    <text x="150" y="222" font-family="IBM Plex Mono" font-size="8" fill="#D6470F" text-anchor="middle">SYRUP</text>
    <text x="150" y="240" font-family="IBM Plex Mono" font-size="7" fill="#8992A9" text-anchor="middle">Iron · Folic Acid · Zinc</text>
    
</svg>